<?xml version="1.0" encoding="UTF-8" standalone="no"?>
<!-- Created with Inkscape (http://www.inkscape.org/) -->

<svg
   xmlns:dc="http://purl.org/dc/elements/1.1/"
   xmlns:cc="http://creativecommons.org/ns#"
   xmlns:rdf="http://www.w3.org/1999/02/22-rdf-syntax-ns#"
   xmlns:svg="http://www.w3.org/2000/svg"
   xmlns="http://www.w3.org/2000/svg"
   xmlns:sodipodi="http://sodipodi.sourceforge.net/DTD/sodipodi-0.dtd"
   xmlns:inkscape="http://www.inkscape.org/namespaces/inkscape"
   version="1.1"
   id="svg2"
   xml:space="preserve"
   width="548.15997"
   height="310.63989"
   viewBox="0 0 548.15999 310.6399"
   sodipodi:docname="parazite.svg"
   inkscape:export-filename="/home/luksoft/Dokumenty/media/script.service.gpio-pseudo-dpms/resources/parazite.png"
   inkscape:export-xdpi="86"
   inkscape:export-ydpi="86"
   inkscape:version="0.92.2 5c3e80d, 2017-08-06"><metadata
     id="metadata8"><rdf:RDF><cc:Work
         rdf:about=""><dc:format>image/svg+xml</dc:format><dc:type
           rdf:resource="http://purl.org/dc/dcmitype/StillImage" /><dc:title></dc:title></cc:Work></rdf:RDF></metadata><defs
     id="defs6" /><sodipodi:namedview
     pagecolor="#ffffff"
     bordercolor="#666666"
     borderopacity="1"
     objecttolerance="10"
     gridtolerance="10"
     guidetolerance="10"
     inkscape:pageopacity="0"
     inkscape:pageshadow="2"
     inkscape:window-width="1362"
     inkscape:window-height="721"
     id="namedview4"
     showgrid="false"
     fit-margin-top="0"
     fit-margin-left="0"
     fit-margin-right="0"
     fit-margin-bottom="0"
     inkscape:zoom="0.63211061"
     inkscape:cx="346.20263"
     inkscape:cy="92.437564"
     inkscape:window-x="0"
     inkscape:window-y="22"
     inkscape:window-maximized="0"
     inkscape:current-layer="g10" /><g
     id="g10"
     inkscape:groupmode="layer"
     inkscape:label="ink_ext_XXXXXX"
     transform="matrix(1.3333333,0,0,-1.3333333,-940.31998,914.95987)"><path
       inkscape:connector-curvature="0"
       id="path44"
       style="fill:none;stroke:#ff2500;stroke-width:0.71999997;stroke-linecap:square;stroke-linejoin:miter;stroke-miterlimit:10;stroke-dasharray:none;stroke-opacity:1"
       d="M 964.8,504 V 489.6" /><path
       inkscape:connector-curvature="0"
       id="path46"
       style="fill:none;stroke:#ff2500;stroke-width:0.71999997;stroke-linecap:square;stroke-linejoin:miter;stroke-miterlimit:10;stroke-dasharray:none;stroke-opacity:1"
       d="m 964.8,540 v 14.4" /><path
       inkscape:connector-curvature="0"
       id="path48"
       style="fill:none;stroke:#ff2500;stroke-width:0.71999997;stroke-linecap:square;stroke-linejoin:miter;stroke-miterlimit:10;stroke-dasharray:none;stroke-opacity:1"
       d="M 979.2,518.4 H 950.4" /><path
       inkscape:connector-curvature="0"
       id="path50"
       style="fill:none;stroke:#ff2500;stroke-width:0.71999997;stroke-linecap:square;stroke-linejoin:miter;stroke-miterlimit:10;stroke-dasharray:none;stroke-opacity:1"
       d="M 979.2,525.6 H 950.4" /><path
       inkscape:connector-curvature="0"
       id="path52"
       style="fill:none;stroke:#ff2500;stroke-width:0.71999997;stroke-linecap:square;stroke-linejoin:miter;stroke-miterlimit:10;stroke-dasharray:none;stroke-opacity:1"
       d="M 964.8,525.6 V 540" /><path
       inkscape:connector-curvature="0"
       id="path54"
       style="fill:none;stroke:#ff2500;stroke-width:0.71999997;stroke-linecap:square;stroke-linejoin:miter;stroke-miterlimit:10;stroke-dasharray:none;stroke-opacity:1"
       d="m 964.8,504 v 14.4" /><path
       inkscape:connector-curvature="0"
       id="path56"
       style="fill:#000000;fill-opacity:1;fill-rule:nonzero;stroke:none;stroke-width:0.1"
       d="m 966.6,489.6 c 0,0.994 -0.806,1.8 -1.8,1.8 -0.993,0 -1.8,-0.806 -1.8,-1.8 0,-0.993 0.807,-1.8 1.8,-1.8 0.994,0 1.8,0.807 1.8,1.8" /><path
       inkscape:connector-curvature="0"
       id="path58"
       style="fill:#000000;fill-opacity:1;fill-rule:nonzero;stroke:none;stroke-width:0.1"
       d="m 966.6,489.6 c 0,0.994 -0.806,1.8 -1.8,1.8 -0.993,0 -1.8,-0.806 -1.8,-1.8 0,-0.993 0.807,-1.8 1.8,-1.8 0.994,0 1.8,0.807 1.8,1.8" /><g
       id="g64"><text
         id="text68"
         style="font-variant:normal;font-weight:normal;font-size:13px;font-family:Helvetica;-inkscape-font-specification:Helvetica;writing-mode:lr-tb;fill:#000000;fill-opacity:1;fill-rule:nonzero;stroke:none"
         transform="matrix(1,0,0,-1,979.2,518.4)"><tspan
           id="tspan66"
           sodipodi:role="line"
           y="0"
           x="0 7.2280002 14.456">1pF</tspan></text>
</g><path
       inkscape:connector-curvature="0"
       id="path70"
       style="fill:none;stroke:#ff2500;stroke-width:0.71999997;stroke-linecap:square;stroke-linejoin:miter;stroke-miterlimit:10;stroke-dasharray:none;stroke-opacity:1"
       d="m 939.6,499.8 h 10.8" /><path
       inkscape:connector-curvature="0"
       id="path72"
       style="fill:none;stroke:#ff2500;stroke-width:0.71999997;stroke-linecap:square;stroke-linejoin:miter;stroke-miterlimit:10;stroke-dasharray:none;stroke-opacity:1"
       d="M 896.4,499.8 H 885.6" /><path
       inkscape:connector-curvature="0"
       id="path74"
       style="fill:none;stroke:#ff2500;stroke-width:0.71999997;stroke-linecap:square;stroke-linejoin:miter;stroke-miterlimit:10;stroke-dasharray:none;stroke-opacity:1"
       d="M 939.6,492.6 H 896.4" /><path
       inkscape:connector-curvature="0"
       id="path76"
       style="fill:none;stroke:#ff2500;stroke-width:0.71999997;stroke-linecap:square;stroke-linejoin:miter;stroke-miterlimit:10;stroke-dasharray:none;stroke-opacity:1"
       d="M 939.6,507 V 492.6" /><path
       inkscape:connector-curvature="0"
       id="path78"
       style="fill:none;stroke:#ff2500;stroke-width:0.71999997;stroke-linecap:square;stroke-linejoin:miter;stroke-miterlimit:10;stroke-dasharray:none;stroke-opacity:1"
       d="m 896.4,507 h 43.2" /><path
       inkscape:connector-curvature="0"
       id="path80"
       style="fill:none;stroke:#ff2500;stroke-width:0.71999997;stroke-linecap:square;stroke-linejoin:miter;stroke-miterlimit:10;stroke-dasharray:none;stroke-opacity:1"
       d="M 896.4,492.6 V 507" /><g
       id="g82"
       transform="translate(-15,-9)"><text
         id="text86"
         style="font-variant:normal;font-weight:normal;font-size:13px;font-family:Helvetica;-inkscape-font-specification:Helvetica;writing-mode:lr-tb;fill:#000000;fill-opacity:1;fill-rule:nonzero;stroke:none"
         transform="matrix(1,0,0,-1,921.6,504)"><tspan
           id="tspan84"
           sodipodi:role="line"
           y="0"
           x="0 7.2280002 14.456">55K</tspan></text>
</g><path
       inkscape:connector-curvature="0"
       id="path88"
       style="fill:none;stroke:#06ff00;stroke-width:0.71999997;stroke-linecap:square;stroke-linejoin:miter;stroke-miterlimit:10;stroke-dasharray:none;stroke-opacity:1"
       d="M 856.8,554.4 H 835.2" /><g
       id="g90"><text
         id="text94"
         style="font-variant:normal;font-weight:normal;font-size:10.39999962px;font-family:Helvetica;-inkscape-font-specification:Helvetica;writing-mode:lr-tb;fill:#000000;fill-opacity:1;fill-rule:nonzero;stroke:none"
         transform="matrix(1,0,0,-1,752.4,550.8)"><tspan
           id="tspan92"
           y="0"
           x="0">2</tspan></text>
</g><path
       inkscape:connector-curvature="0"
       id="path96"
       style="fill:none;stroke:#000000;stroke-width:0.71999997;stroke-linecap:square;stroke-linejoin:miter;stroke-miterlimit:10;stroke-dasharray:none;stroke-opacity:1"
       d="M 856.8,511.2 H 835.2" /><g
       id="g98"><text
         id="text102"
         style="font-variant:normal;font-weight:normal;font-size:10.39999962px;font-family:Helvetica;-inkscape-font-specification:Helvetica;writing-mode:lr-tb;fill:#000000;fill-opacity:1;fill-rule:nonzero;stroke:none"
         transform="matrix(1,0,0,-1,752.4,507.6)"><tspan
           id="tspan100"
           y="0"
           x="0">4</tspan></text>
</g><path
       inkscape:connector-curvature="0"
       id="path104"
       style="fill:none;stroke:#000000;stroke-width:0.71999997;stroke-linecap:square;stroke-linejoin:miter;stroke-miterlimit:10;stroke-dasharray:none;stroke-opacity:1"
       d="M 856.8,468 H 835.2" /><g
       id="g106"><text
         id="text110"
         style="font-variant:normal;font-weight:normal;font-size:10.39999962px;font-family:Helvetica;-inkscape-font-specification:Helvetica;writing-mode:lr-tb;fill:#000000;fill-opacity:1;fill-rule:nonzero;stroke:none"
         transform="matrix(1,0,0,-1,752.4,464.4)"><tspan
           id="tspan108"
           y="0"
           x="0">6</tspan></text>
</g><path
       inkscape:connector-curvature="0"
       id="path112"
       style="fill:none;stroke:#000000;stroke-width:0.71999997;stroke-linecap:square;stroke-linejoin:miter;stroke-miterlimit:10;stroke-dasharray:none;stroke-opacity:1"
       d="M 856.8,576 H 835.2" /><g
       id="g114"><text
         id="text118"
         style="font-variant:normal;font-weight:normal;font-size:10.39999962px;font-family:Helvetica;-inkscape-font-specification:Helvetica;writing-mode:lr-tb;fill:#000000;fill-opacity:1;fill-rule:nonzero;stroke:none"
         transform="matrix(1,0,0,-1,752.4,572.4)"><tspan
           id="tspan116"
           y="0"
           x="0">1</tspan></text>
</g><path
       inkscape:connector-curvature="0"
       id="path120"
       style="fill:none;stroke:#cbcb00;stroke-width:0.71999997;stroke-linecap:square;stroke-linejoin:miter;stroke-miterlimit:10;stroke-dasharray:none;stroke-opacity:1"
       d="M 856.8,532.8 H 835.2" /><g
       id="g122"><text
         id="text126"
         style="font-variant:normal;font-weight:normal;font-size:10.39999962px;font-family:Helvetica;-inkscape-font-specification:Helvetica;writing-mode:lr-tb;fill:#000000;fill-opacity:1;fill-rule:nonzero;stroke:none"
         transform="matrix(1,0,0,-1,752.4,529.2)"><tspan
           id="tspan124"
           y="0"
           x="0">3</tspan></text>
</g><path
       inkscape:connector-curvature="0"
       id="path128"
       style="fill:none;stroke:#ff2500;stroke-width:0.71999997;stroke-linecap:square;stroke-linejoin:miter;stroke-miterlimit:10;stroke-dasharray:none;stroke-opacity:1"
       d="M 856.8,489.6 H 835.2" /><g
       id="g130"><text
         id="text134"
         style="font-variant:normal;font-weight:normal;font-size:10.39999962px;font-family:Helvetica;-inkscape-font-specification:Helvetica;writing-mode:lr-tb;fill:#000000;fill-opacity:1;fill-rule:nonzero;stroke:none"
         transform="matrix(1,0,0,-1,752.4,486)"><tspan
           id="tspan132"
           y="0"
           x="0">5</tspan></text>
</g><path
       inkscape:connector-curvature="0"
       id="path136"
       style="fill:none;stroke:#000000;stroke-width:0.71999997;stroke-linecap:square;stroke-linejoin:miter;stroke-miterlimit:10;stroke-dasharray:none;stroke-opacity:1"
       d="m 770.4,576 h 64.8" /><path
       inkscape:connector-curvature="0"
       id="path138"
       style="fill:none;stroke:#06ff00;stroke-width:0.72000003;stroke-linecap:square;stroke-linejoin:miter;stroke-miterlimit:10;stroke-dasharray:none;stroke-opacity:1"
       d="m 770.4,554.4 h 64.8" /><path
       inkscape:connector-curvature="0"
       id="path140"
       style="fill:none;stroke:#cbcb00;stroke-width:0.71999997;stroke-linecap:square;stroke-linejoin:miter;stroke-miterlimit:10;stroke-dasharray:none;stroke-opacity:1"
       d="m 770.4,532.8 h 64.8" /><path
       inkscape:connector-curvature="0"
       id="path142"
       style="fill:none;stroke:#000000;stroke-width:0.71999997;stroke-linecap:square;stroke-linejoin:miter;stroke-miterlimit:10;stroke-dasharray:none;stroke-opacity:1"
       d="m 770.4,511.2 h 64.8" /><path
       inkscape:connector-curvature="0"
       id="path144"
       style="fill:none;stroke:#ff2500;stroke-width:0.71999997;stroke-linecap:square;stroke-linejoin:miter;stroke-miterlimit:10;stroke-dasharray:none;stroke-opacity:1"
       d="m 770.4,489.6 h 64.8" /><path
       inkscape:connector-curvature="0"
       id="path146"
       style="fill:none;stroke:#000000;stroke-width:0.71999997;stroke-linecap:square;stroke-linejoin:miter;stroke-miterlimit:10;stroke-dasharray:none;stroke-opacity:1"
       d="m 770.4,468 h 64.8" /><path
       inkscape:connector-curvature="0"
       id="path148"
       style="fill:none;stroke:#000000;stroke-width:0.71999997;stroke-linecap:square;stroke-linejoin:miter;stroke-miterlimit:10;stroke-dasharray:none;stroke-opacity:1"
       d="m 770.4,453.6 h -36" /><path
       inkscape:connector-curvature="0"
       id="path150"
       style="fill:none;stroke:#000000;stroke-width:0.71999997;stroke-linecap:square;stroke-linejoin:miter;stroke-miterlimit:10;stroke-dasharray:none;stroke-opacity:1"
       d="M 770.4,590.4 V 453.6" /><path
       inkscape:connector-curvature="0"
       id="path152"
       style="fill:none;stroke:#000000;stroke-width:0.71999997;stroke-linecap:square;stroke-linejoin:miter;stroke-miterlimit:10;stroke-dasharray:none;stroke-opacity:1"
       d="m 734.4,590.4 h 36" /><path
       inkscape:connector-curvature="0"
       id="path154"
       style="fill:none;stroke:#000000;stroke-width:0.71999997;stroke-linecap:square;stroke-linejoin:miter;stroke-miterlimit:10;stroke-dasharray:none;stroke-opacity:1"
       d="M 734.4,453.6 V 590.4" /><g
       id="g156"><text
         id="text160"
         style="font-variant:normal;font-weight:normal;font-size:13px;font-family:Helvetica;-inkscape-font-specification:Helvetica;writing-mode:lr-tb;fill:#000000;fill-opacity:1;fill-rule:nonzero;stroke:none"
         transform="matrix(1,0,0,-1,741.6,597.6)"><tspan
           id="tspan158"
           sodipodi:role="line"
           y="0"
           x="0 9.3859997 19.5 28.886 38.271999 41.886002 52.715 59.943001 62.828999">CONN male</tspan></text>
</g><path
       inkscape:connector-curvature="0"
       id="path162"
       style="fill:none;stroke:#000000;stroke-width:0.71999997;stroke-linecap:square;stroke-linejoin:miter;stroke-miterlimit:10;stroke-dasharray:none;stroke-opacity:1"
       d="M 993.6,576 H 856.8" /><path
       inkscape:connector-curvature="0"
       id="path164"
       style="fill:none;stroke:#06ff00;stroke-width:0.71999997;stroke-linecap:square;stroke-linejoin:miter;stroke-miterlimit:10;stroke-dasharray:none;stroke-opacity:1"
       d="m 993.6,554.4 h 21.6" /><g
       id="g166"><text
         id="text170"
         style="font-variant:normal;font-weight:normal;font-size:10.39999962px;font-family:Helvetica;-inkscape-font-specification:Helvetica;writing-mode:lr-tb;fill:#000000;fill-opacity:1;fill-rule:nonzero;stroke:none"
         transform="matrix(1,0,0,-1,1092.22,550.8)"><tspan
           id="tspan168"
           y="0"
           x="0">2</tspan></text>
</g><path
       inkscape:connector-curvature="0"
       id="path172"
       style="fill:none;stroke:#000000;stroke-width:0.71999997;stroke-linecap:square;stroke-linejoin:miter;stroke-miterlimit:10;stroke-dasharray:none;stroke-opacity:1"
       d="m 993.6,511.2 h 21.6" /><g
       id="g174"><text
         id="text178"
         style="font-variant:normal;font-weight:normal;font-size:10.39999962px;font-family:Helvetica;-inkscape-font-specification:Helvetica;writing-mode:lr-tb;fill:#000000;fill-opacity:1;fill-rule:nonzero;stroke:none"
         transform="matrix(1,0,0,-1,1092.22,507.6)"><tspan
           id="tspan176"
           y="0"
           x="0">4</tspan></text>
</g><path
       inkscape:connector-curvature="0"
       id="path180"
       style="fill:none;stroke:#000000;stroke-width:0.71999997;stroke-linecap:square;stroke-linejoin:miter;stroke-miterlimit:10;stroke-dasharray:none;stroke-opacity:1"
       d="m 993.6,468 h 21.6" /><g
       id="g182"><text
         id="text186"
         style="font-variant:normal;font-weight:normal;font-size:10.39999962px;font-family:Helvetica;-inkscape-font-specification:Helvetica;writing-mode:lr-tb;fill:#000000;fill-opacity:1;fill-rule:nonzero;stroke:none"
         transform="matrix(1,0,0,-1,1092.22,464.4)"><tspan
           id="tspan184"
           y="0"
           x="0">6</tspan></text>
</g><path
       inkscape:connector-curvature="0"
       id="path188"
       style="fill:none;stroke:#000000;stroke-width:0.71999997;stroke-linecap:square;stroke-linejoin:miter;stroke-miterlimit:10;stroke-dasharray:none;stroke-opacity:1"
       d="m 993.6,576 h 21.6" /><g
       id="g190"><text
         id="text194"
         style="font-variant:normal;font-weight:normal;font-size:10.39999962px;font-family:Helvetica;-inkscape-font-specification:Helvetica;writing-mode:lr-tb;fill:#000000;fill-opacity:1;fill-rule:nonzero;stroke:none"
         transform="matrix(1,0,0,-1,1092.22,572.4)"><tspan
           id="tspan192"
           y="0"
           x="0">1</tspan></text>
</g><path
       inkscape:connector-curvature="0"
       id="path196"
       style="fill:none;stroke:#cbcb00;stroke-width:0.71999997;stroke-linecap:square;stroke-linejoin:miter;stroke-miterlimit:10;stroke-dasharray:none;stroke-opacity:1"
       d="m 993.6,532.8 h 21.6" /><g
       id="g198"><text
         id="text202"
         style="font-variant:normal;font-weight:normal;font-size:10.39999962px;font-family:Helvetica;-inkscape-font-specification:Helvetica;writing-mode:lr-tb;fill:#000000;fill-opacity:1;fill-rule:nonzero;stroke:none"
         transform="matrix(1,0,0,-1,1092.22,529.2)"><tspan
           id="tspan200"
           y="0"
           x="0">3</tspan></text>
</g><path
       inkscape:connector-curvature="0"
       id="path204"
       style="fill:none;stroke:#ff2500;stroke-width:0.71999997;stroke-linecap:square;stroke-linejoin:miter;stroke-miterlimit:10;stroke-dasharray:none;stroke-opacity:1"
       d="m 993.6,489.6 h 21.6" /><g
       id="g206"><text
         id="text210"
         style="font-variant:normal;font-weight:normal;font-size:10.39999962px;font-family:Helvetica;-inkscape-font-specification:Helvetica;writing-mode:lr-tb;fill:#000000;fill-opacity:1;fill-rule:nonzero;stroke:none"
         transform="matrix(1,0,0,-1,1092.22,486)"><tspan
           id="tspan208"
           y="0"
           x="0">5</tspan></text>
</g><path
       inkscape:connector-curvature="0"
       id="path212"
       style="fill:none;stroke:#000000;stroke-width:0.71999997;stroke-linecap:square;stroke-linejoin:miter;stroke-miterlimit:10;stroke-dasharray:none;stroke-opacity:1"
       d="m 1080,576 h -64.8" /><path
       inkscape:connector-curvature="0"
       id="path214"
       style="fill:none;stroke:#06ff00;stroke-width:0.71999997;stroke-linecap:square;stroke-linejoin:miter;stroke-miterlimit:10;stroke-dasharray:none;stroke-opacity:1"
       d="m 1080,554.4 h -64.8" /><path
       inkscape:connector-curvature="0"
       id="path216"
       style="fill:none;stroke:#cbcb00;stroke-width:0.71999997;stroke-linecap:square;stroke-linejoin:miter;stroke-miterlimit:10;stroke-dasharray:none;stroke-opacity:1"
       d="m 1080,532.8 h -64.8" /><path
       inkscape:connector-curvature="0"
       id="path218"
       style="fill:none;stroke:#000000;stroke-width:0.71999997;stroke-linecap:square;stroke-linejoin:miter;stroke-miterlimit:10;stroke-dasharray:none;stroke-opacity:1"
       d="m 1080,511.2 h -64.8" /><path
       inkscape:connector-curvature="0"
       id="path220"
       style="fill:none;stroke:#ff2500;stroke-width:0.71999997;stroke-linecap:square;stroke-linejoin:miter;stroke-miterlimit:10;stroke-dasharray:none;stroke-opacity:1"
       d="m 1080,489.6 h -64.8" /><path
       inkscape:connector-curvature="0"
       id="path222"
       style="fill:none;stroke:#000000;stroke-width:0.71999997;stroke-linecap:square;stroke-linejoin:miter;stroke-miterlimit:10;stroke-dasharray:none;stroke-opacity:1"
       d="m 1080,468 h -64.8" /><path
       inkscape:connector-curvature="0"
       id="path224"
       style="fill:none;stroke:#000000;stroke-width:0.71999997;stroke-linecap:square;stroke-linejoin:miter;stroke-miterlimit:10;stroke-dasharray:none;stroke-opacity:1"
       d="m 1116,453.6 h -36" /><path
       inkscape:connector-curvature="0"
       id="path226"
       style="fill:none;stroke:#000000;stroke-width:0.71999997;stroke-linecap:square;stroke-linejoin:miter;stroke-miterlimit:10;stroke-dasharray:none;stroke-opacity:1"
       d="M 1116,590.4 V 453.6" /><path
       inkscape:connector-curvature="0"
       id="path228"
       style="fill:none;stroke:#000000;stroke-width:0.71999997;stroke-linecap:square;stroke-linejoin:miter;stroke-miterlimit:10;stroke-dasharray:none;stroke-opacity:1"
       d="m 1080,590.4 h 36" /><path
       inkscape:connector-curvature="0"
       id="path230"
       style="fill:none;stroke:#000000;stroke-width:0.71999997;stroke-linecap:square;stroke-linejoin:miter;stroke-miterlimit:10;stroke-dasharray:none;stroke-opacity:1"
       d="M 1080,453.6 V 590.4" /><g
       id="g232"><text
         id="text236"
         style="font-variant:normal;font-weight:normal;font-size:13px;font-family:Helvetica;-inkscape-font-specification:Helvetica;writing-mode:lr-tb;fill:#000000;fill-opacity:1;fill-rule:nonzero;stroke:none"
         transform="matrix(1,0,0,-1,1027.9,597.6)"><tspan
           id="tspan234"
           sodipodi:role="line"
           y="0"
           x="0 9.3859997 19.5 28.886 38.271999 41.886002 45.5 52.728001 63.556999 70.785004 73.670998">CONN female</tspan></text>
</g><path
       inkscape:connector-curvature="0"
       id="path238"
       style="fill:none;stroke:#06ff00;stroke-width:0.71999997;stroke-linecap:square;stroke-linejoin:miter;stroke-miterlimit:10;stroke-dasharray:none;stroke-opacity:1"
       d="M 993.6,554.4 H 856.8" /><path
       inkscape:connector-curvature="0"
       id="path240"
       style="fill:none;stroke:#cbcb00;stroke-width:0.71999997;stroke-linecap:square;stroke-linejoin:miter;stroke-miterlimit:10;stroke-dasharray:none;stroke-opacity:1"
       d="M 993.6,532.8 H 856.8" /><path
       inkscape:connector-curvature="0"
       id="path242"
       style="fill:none;stroke:#000000;stroke-width:0.71999997;stroke-linecap:square;stroke-linejoin:miter;stroke-miterlimit:10;stroke-dasharray:none;stroke-opacity:1"
       d="M 993.6,511.2 H 856.8" /><path
       inkscape:connector-curvature="0"
       id="path244"
       style="fill:none;stroke:#ff2500;stroke-width:0.71999997;stroke-linecap:square;stroke-linejoin:miter;stroke-miterlimit:10;stroke-dasharray:none;stroke-opacity:1"
       d="M 993.6,489.6 H 856.8" /><path
       inkscape:connector-curvature="0"
       id="path246"
       style="fill:none;stroke:#000000;stroke-width:0.71999997;stroke-linecap:square;stroke-linejoin:miter;stroke-miterlimit:10;stroke-dasharray:none;stroke-opacity:1"
       d="M 993.6,468 H 856.8" /><path
       inkscape:connector-curvature="0"
       id="path248"
       style="fill:none;stroke:#ff2500;stroke-width:0.71999997;stroke-linecap:square;stroke-linejoin:miter;stroke-miterlimit:10;stroke-dasharray:none;stroke-opacity:1"
       d="M 828,633.6 H 806.4" /><g
       id="g250"
       transform="translate(-4.5)"><text
         id="text254"
         style="font-variant:normal;font-weight:normal;font-size:10.39999962px;font-family:Helvetica;-inkscape-font-specification:Helvetica;writing-mode:lr-tb;fill:#000000;fill-opacity:1;fill-rule:nonzero;stroke:none"
         transform="matrix(1,0,0,-1,730.8,630)"><tspan
           id="tspan252"
           y="0"
           x="0">17</tspan></text>
</g><path
       inkscape:connector-curvature="0"
       id="path256"
       style="fill:none;stroke:#c1ff07;stroke-width:0.71999997;stroke-linecap:square;stroke-linejoin:miter;stroke-miterlimit:10;stroke-dasharray:none;stroke-opacity:1"
       d="M 828,655.2 H 806.4" /><g
       id="g258"
       transform="translate(-4.5)"><text
         id="text262"
         style="font-variant:normal;font-weight:normal;font-size:10.39999962px;font-family:Helvetica;-inkscape-font-specification:Helvetica;writing-mode:lr-tb;fill:#000000;fill-opacity:1;fill-rule:nonzero;stroke:none"
         transform="matrix(1,0,0,-1,730.8,651.6)"><tspan
           id="tspan260"
           y="0"
           x="0">27</tspan></text>
</g><path
       inkscape:connector-curvature="0"
       id="path264"
       style="fill:none;stroke:#c1ff07;stroke-width:0.71999997;stroke-linecap:square;stroke-linejoin:miter;stroke-miterlimit:10;stroke-dasharray:none;stroke-opacity:1"
       d="m 741.6,655.2 h 64.8" /><path
       inkscape:connector-curvature="0"
       id="path266"
       style="fill:none;stroke:#ff2500;stroke-width:0.71999997;stroke-linecap:square;stroke-linejoin:miter;stroke-miterlimit:10;stroke-dasharray:none;stroke-opacity:1"
       d="m 741.6,633.6 h 64.8" /><path
       inkscape:connector-curvature="0"
       id="path268"
       style="fill:none;stroke:#000000;stroke-width:0.71999997;stroke-linecap:square;stroke-linejoin:miter;stroke-miterlimit:10;stroke-dasharray:none;stroke-opacity:1"
       d="m 741.6,619.2 h -36" /><path
       inkscape:connector-curvature="0"
       id="path270"
       style="fill:none;stroke:#000000;stroke-width:0.71999997;stroke-linecap:square;stroke-linejoin:miter;stroke-miterlimit:10;stroke-dasharray:none;stroke-opacity:1"
       d="M 741.6,669.6 V 619.2" /><path
       inkscape:connector-curvature="0"
       id="path272"
       style="fill:none;stroke:#000000;stroke-width:0.71999997;stroke-linecap:square;stroke-linejoin:miter;stroke-miterlimit:10;stroke-dasharray:none;stroke-opacity:1"
       d="m 705.6,669.6 h 36" /><path
       inkscape:connector-curvature="0"
       id="path274"
       style="fill:none;stroke:#000000;stroke-width:0.71999997;stroke-linecap:square;stroke-linejoin:miter;stroke-miterlimit:10;stroke-dasharray:none;stroke-opacity:1"
       d="m 705.6,619.2 v 50.4" /><g
       id="g276"><text
         id="text280"
         style="font-variant:normal;font-weight:normal;font-size:13px;font-family:Helvetica;-inkscape-font-specification:Helvetica;writing-mode:lr-tb;fill:#000000;fill-opacity:1;fill-rule:nonzero;stroke:none"
         transform="matrix(1,0,0,-1,705.6,676.8)"><tspan
           id="tspan278"
           sodipodi:role="line"
           y="0"
           x="0 8.6709995 12.285 15.899 26.013 34.683998 38.298 48.411999 52.026001 55.639999 62.868 73.696999 80.925003 83.810997">PI GPIO female</tspan></text>
</g><path
       inkscape:connector-curvature="0"
       id="path282"
       style="fill:none;stroke:#ff2500;stroke-width:0.71999997;stroke-linecap:square;stroke-linejoin:miter;stroke-miterlimit:10;stroke-dasharray:none;stroke-opacity:1"
       d="m 885.6,518.4 h -18" /><path
       inkscape:connector-curvature="0"
       id="path284"
       style="fill:none;stroke:#ff2500;stroke-width:0.71999997;stroke-linecap:square;stroke-linejoin:miter;stroke-miterlimit:10;stroke-dasharray:none;stroke-opacity:1"
       d="m 885.6,547.2 h -18" /><path
       inkscape:connector-curvature="0"
       id="path286"
       style="fill:none;stroke:#ff2500;stroke-width:0.71999997;stroke-linecap:square;stroke-linejoin:miter;stroke-miterlimit:10;stroke-dasharray:none;stroke-opacity:1"
       d="m 874.8,529.2 -7.2,3.6" /><path
       inkscape:connector-curvature="0"
       id="path288"
       style="fill:none;stroke:#ff2500;stroke-width:0.71999997;stroke-linecap:square;stroke-linejoin:miter;stroke-miterlimit:10;stroke-dasharray:none;stroke-opacity:1"
       d="m 874.8,536.4 -7.2,-3.6" /><path
       inkscape:connector-curvature="0"
       id="path290"
       style="fill:none;stroke:#ff2500;stroke-width:0.71999997;stroke-linecap:square;stroke-linejoin:miter;stroke-miterlimit:10;stroke-dasharray:none;stroke-opacity:1"
       d="M 864,547.2 H 849.6" /><path
       inkscape:connector-curvature="0"
       id="path292"
       style="fill:none;stroke:#ff2500;stroke-width:0.71999997;stroke-linecap:square;stroke-linejoin:miter;stroke-miterlimit:10;stroke-dasharray:none;stroke-opacity:1"
       d="m 885.6,504 v 14.4" /><path
       inkscape:connector-curvature="0"
       id="path294"
       style="fill:none;stroke:#ff2500;stroke-width:0.71999997;stroke-linecap:square;stroke-linejoin:miter;stroke-miterlimit:10;stroke-dasharray:none;stroke-opacity:1"
       d="M 885.6,561.6 V 547.2" /><path
       inkscape:connector-curvature="0"
       id="path296"
       style="fill:none;stroke:#ff2500;stroke-width:0.71999997;stroke-linecap:square;stroke-linejoin:miter;stroke-miterlimit:10;stroke-dasharray:none;stroke-opacity:1"
       d="M 867.6,523.8 V 513" /><path
       inkscape:connector-curvature="0"
       id="path298"
       style="fill:none;stroke:#ff2500;stroke-width:0.71999997;stroke-linecap:square;stroke-linejoin:miter;stroke-miterlimit:10;stroke-dasharray:none;stroke-opacity:1"
       d="M 867.6,538.2 V 527.4" /><path
       inkscape:connector-curvature="0"
       id="path300"
       style="fill:none;stroke:#ff2500;stroke-width:0.71999997;stroke-linecap:square;stroke-linejoin:miter;stroke-miterlimit:10;stroke-dasharray:none;stroke-opacity:1"
       d="M 867.6,552.6 V 541.8" /><path
       inkscape:connector-curvature="0"
       id="path302"
       style="fill:none;stroke:#ff2500;stroke-width:0.71999997;stroke-linecap:square;stroke-linejoin:miter;stroke-miterlimit:10;stroke-dasharray:none;stroke-opacity:1"
       d="M 864,547.2 V 518.4" /><path
       inkscape:connector-curvature="0"
       id="path304"
       style="fill:none;stroke:#ff2500;stroke-width:0.71999997;stroke-linecap:square;stroke-linejoin:miter;stroke-miterlimit:10;stroke-dasharray:none;stroke-opacity:1"
       d="M 878.4,532.8 H 867.6" /><path
       inkscape:connector-curvature="0"
       id="path306"
       style="fill:none;stroke:#ff2500;stroke-width:0.71999997;stroke-linecap:square;stroke-linejoin:miter;stroke-miterlimit:10;stroke-dasharray:none;stroke-opacity:1"
       d="M 878.4,547.2 V 532.8" /><path
       inkscape:connector-curvature="0"
       id="path308"
       style="fill:none;stroke:#000000;stroke-width:0.71999997;stroke-linecap:square;stroke-linejoin:miter;stroke-miterlimit:10;stroke-dasharray:none;stroke-opacity:1"
       d="m 885.6,633.6 h 24.48" /><path
       inkscape:connector-curvature="0"
       id="path310"
       style="fill:none;stroke:#000000;stroke-width:0.71999997;stroke-linecap:square;stroke-linejoin:miter;stroke-miterlimit:10;stroke-dasharray:none;stroke-opacity:1"
       d="m 885.6,676.8 h 24.48" /><path
       inkscape:connector-curvature="0"
       id="path318"
       style="fill:none;stroke:#000000;stroke-width:0.71999997;stroke-linecap:square;stroke-linejoin:miter;stroke-miterlimit:10;stroke-dasharray:none;stroke-opacity:1"
       d="M 909.906,676.936 C 903.614,671.466 900,663.538 900,655.2 c 0,-8.162 3.464,-15.941 9.529,-21.402" /><path
       inkscape:connector-curvature="0"
       id="path320"
       style="fill:none;stroke:#06ff00;stroke-width:0.71999997;stroke-linecap:square;stroke-linejoin:miter;stroke-miterlimit:10;stroke-dasharray:none;stroke-opacity:1"
       d="M 928.8,669.6 H 907.2" /><g
       id="g322"><text
         id="text326"
         style="font-variant:normal;font-weight:normal;font-size:10.39999962px;font-family:Helvetica;-inkscape-font-specification:Helvetica;writing-mode:lr-tb;fill:#000000;fill-opacity:1;fill-rule:nonzero;stroke:none"
         transform="matrix(1,0,0,-1,914.4,673.2)"><tspan
           id="tspan324"
           y="0"
           x="0">1</tspan></text>
</g><path
       inkscape:connector-curvature="0"
       id="path328"
       style="fill:none;stroke:#cbcb00;stroke-width:0.71999997;stroke-linecap:square;stroke-linejoin:miter;stroke-miterlimit:10;stroke-dasharray:none;stroke-opacity:1"
       d="M 928.8,640.8 H 907.2" /><g
       id="g330"><text
         id="text334"
         style="font-variant:normal;font-weight:normal;font-size:10.39999962px;font-family:Helvetica;-inkscape-font-specification:Helvetica;writing-mode:lr-tb;fill:#000000;fill-opacity:1;fill-rule:nonzero;stroke:none"
         transform="matrix(1,0,0,-1,914.4,644.4)"><tspan
           id="tspan332"
           y="0"
           x="0">2</tspan></text>
</g><path
       inkscape:connector-curvature="0"
       id="path336"
       style="fill:none;stroke:#c1ff07;stroke-width:0.71999997;stroke-linecap:square;stroke-linejoin:miter;stroke-miterlimit:10;stroke-dasharray:none;stroke-opacity:1"
       d="M 857.664,655.2 H 835.2" /><g
       id="g338"><text
         id="text342"
         style="font-variant:normal;font-weight:normal;font-size:10.39999962px;font-family:Helvetica;-inkscape-font-specification:Helvetica;writing-mode:lr-tb;fill:#000000;fill-opacity:1;fill-rule:nonzero;stroke:none"
         transform="matrix(1,0,0,-1,843.818,658.8)"><tspan
           id="tspan340"
           y="0"
           x="0">3</tspan></text>
</g><path
       inkscape:connector-curvature="0"
       id="path344"
       style="fill:none;stroke:#000000;stroke-width:0.71999997;stroke-linecap:square;stroke-linejoin:miter;stroke-miterlimit:10;stroke-dasharray:none;stroke-opacity:1"
       d="M 857.656,655.433 C 860.854,642.604 872.378,633.6 885.6,633.6" /><path
       inkscape:connector-curvature="0"
       id="path346"
       style="fill:none;stroke:#000000;stroke-width:0.71999997;stroke-linecap:square;stroke-linejoin:miter;stroke-miterlimit:10;stroke-dasharray:none;stroke-opacity:1"
       d="m 885.6,676.8 c -13.222,0 -24.746,-9.003 -27.944,-21.832" /><path
       inkscape:connector-curvature="0"
       id="path348"
       style="fill:none;stroke:#ff2500;stroke-width:0.71999997;stroke-linecap:square;stroke-linejoin:miter;stroke-miterlimit:10;stroke-dasharray:none;stroke-opacity:1"
       d="M 885.6,576 V 561.6" /><path
       inkscape:connector-curvature="0"
       id="path350"
       style="fill:none;stroke:#ff2500;stroke-width:0.71999997;stroke-linecap:square;stroke-linejoin:miter;stroke-miterlimit:10;stroke-dasharray:none;stroke-opacity:1"
       d="M 885.6,499.8 V 507" /><path
       inkscape:connector-curvature="0"
       id="path352"
       style="fill:none;stroke:#ff2500;stroke-width:0.71999997;stroke-linecap:square;stroke-linejoin:miter;stroke-miterlimit:10;stroke-dasharray:none;stroke-opacity:1"
       d="M 849.6,633.6 H 828" /><path
       inkscape:connector-curvature="0"
       id="path354"
       style="fill:none;stroke:#ff2500;stroke-width:0.71999997;stroke-linecap:square;stroke-linejoin:miter;stroke-miterlimit:10;stroke-dasharray:none;stroke-opacity:1"
       d="m 849.6,547.2 v 86.4" /><path
       inkscape:connector-curvature="0"
       id="path356"
       style="fill:none;stroke:#c1ff07;stroke-width:0.71999997;stroke-linecap:square;stroke-linejoin:miter;stroke-miterlimit:10;stroke-dasharray:none;stroke-opacity:1"
       d="M 835.2,655.2 H 828" /><path
       inkscape:connector-curvature="0"
       id="path358"
       style="fill:none;stroke:#ff2500;stroke-width:0.71999997;stroke-linecap:square;stroke-linejoin:miter;stroke-miterlimit:10;stroke-dasharray:none;stroke-opacity:1"
       d="m 950.4,576 14.4,-21.6" /><path
       inkscape:connector-curvature="0"
       id="path360"
       style="fill:none;stroke:#ff2500;stroke-width:0.71999997;stroke-linecap:square;stroke-linejoin:miter;stroke-miterlimit:10;stroke-dasharray:none;stroke-opacity:1"
       d="m 964.8,489.6 -14.4,10.2"
       sodipodi:nodetypes="cc" /><path
       inkscape:connector-curvature="0"
       id="path362"
       style="fill:none;stroke:#cbcb00;stroke-width:0.71999997;stroke-linecap:square;stroke-linejoin:miter;stroke-miterlimit:10;stroke-dasharray:none;stroke-opacity:1"
       d="m 928.8,532.8 v 108" /><path
       inkscape:connector-curvature="0"
       id="path364"
       style="fill:none;stroke:#06fb00;stroke-width:0.71999997;stroke-linecap:square;stroke-linejoin:miter;stroke-miterlimit:10;stroke-dasharray:none;stroke-opacity:1"
       d="M 986.4,669.6 H 928.8" /><path
       inkscape:connector-curvature="0"
       id="path366"
       style="fill:none;stroke:#06fb00;stroke-width:0.71999997;stroke-linecap:square;stroke-linejoin:miter;stroke-miterlimit:10;stroke-dasharray:none;stroke-opacity:1"
       d="M 986.4,554.4 V 669.6" /><path
       inkscape:connector-curvature="0"
       id="path368"
       style="fill:#000000;fill-opacity:1;fill-rule:nonzero;stroke:none;stroke-width:0.1"
       d="m 966.6,489.6 c 0,0.994 -0.806,1.8 -1.8,1.8 -0.993,0 -1.8,-0.806 -1.8,-1.8 0,-0.993 0.807,-1.8 1.8,-1.8 0.994,0 1.8,0.807 1.8,1.8" /><path
       inkscape:connector-curvature="0"
       id="path370"
       style="fill:#000000;fill-opacity:1;fill-rule:nonzero;stroke:none;stroke-width:0.1"
       d="m 966.6,489.6 c 0,0.994 -0.806,1.8 -1.8,1.8 -0.993,0 -1.8,-0.806 -1.8,-1.8 0,-0.993 0.807,-1.8 1.8,-1.8 0.994,0 1.8,0.807 1.8,1.8" /><path
       inkscape:connector-curvature="0"
       id="path376"
       style="fill:#000000;fill-opacity:1;fill-rule:nonzero;stroke:none;stroke-width:0.1"
       d="m 887.4,576 c 0,0.994 -0.806,1.8 -1.8,1.8 -0.993,0 -1.8,-0.806 -1.8,-1.8 0,-0.993 0.807,-1.8 1.8,-1.8 0.994,0 1.8,0.807 1.8,1.8" /><path
       inkscape:connector-curvature="0"
       id="path378"
       style="fill:#000000;fill-opacity:1;fill-rule:nonzero;stroke:none;stroke-width:0.1"
       d="m 952.2,576 c 0,0.994 -0.806,1.8 -1.8,1.8 -0.993,0 -1.8,-0.806 -1.8,-1.8 0,-0.993 0.807,-1.8 1.8,-1.8 0.994,0 1.8,0.807 1.8,1.8" /><path
       inkscape:connector-curvature="0"
       id="path384"
       style="fill:#000000;fill-opacity:1;fill-rule:nonzero;stroke:none;stroke-width:0.1"
       d="m 988.2,554.4 c 0,0.994 -0.806,1.8 -1.8,1.8 -0.993,0 -1.8,-0.806 -1.8,-1.8 0,-0.993 0.807,-1.8 1.8,-1.8 0.994,0 1.8,0.807 1.8,1.8" /><path
       inkscape:connector-curvature="0"
       id="path386"
       style="fill:#000000;fill-opacity:1;fill-rule:nonzero;stroke:none;stroke-width:0.1"
       d="m 930.6,532.8 c 0,0.994 -0.806,1.8 -1.8,1.8 -0.993,0 -1.8,-0.806 -1.8,-1.8 0,-0.993 0.807,-1.8 1.8,-1.8 0.994,0 1.8,0.807 1.8,1.8" /><path
       inkscape:connector-curvature="0"
       id="path388"
       style="fill:#000000;fill-opacity:1;fill-rule:nonzero;stroke:none;stroke-width:0.1"
       d="m 966.6,489.6 c 0,0.994 -0.806,1.8 -1.8,1.8 -0.993,0 -1.8,-0.806 -1.8,-1.8 0,-0.993 0.807,-1.8 1.8,-1.8 0.994,0 1.8,0.807 1.8,1.8" /><path
       inkscape:connector-curvature="0"
       id="path390"
       style="fill:#000000;fill-opacity:1;fill-rule:nonzero;stroke:none;stroke-width:0.1"
       d="m 966.6,489.6 c 0,0.994 -0.806,1.8 -1.8,1.8 -0.993,0 -1.8,-0.806 -1.8,-1.8 0,-0.993 0.807,-1.8 1.8,-1.8 0.994,0 1.8,0.807 1.8,1.8" /><path
       inkscape:connector-curvature="0"
       id="path392"
       style="fill:#000000;fill-opacity:1;fill-rule:nonzero;stroke:none;stroke-width:0.1"
       d="m 887.4,576 c 0,0.994 -0.806,1.8 -1.8,1.8 -0.993,0 -1.8,-0.806 -1.8,-1.8 0,-0.993 0.807,-1.8 1.8,-1.8 0.994,0 1.8,0.807 1.8,1.8" /><path
       inkscape:connector-curvature="0"
       id="path394"
       style="fill:#000000;fill-opacity:1;fill-rule:nonzero;stroke:none;stroke-width:0.1"
       d="m 887.4,576 c 0,0.994 -0.806,1.8 -1.8,1.8 -0.993,0 -1.8,-0.806 -1.8,-1.8 0,-0.993 0.807,-1.8 1.8,-1.8 0.994,0 1.8,0.807 1.8,1.8" /><path
       inkscape:connector-curvature="0"
       id="path398"
       style="fill:#000000;fill-opacity:1;fill-rule:nonzero;stroke:none;stroke-width:0.1"
       d="m 952.2,576 c 0,0.994 -0.806,1.8 -1.8,1.8 -0.993,0 -1.8,-0.806 -1.8,-1.8 0,-0.993 0.807,-1.8 1.8,-1.8 0.994,0 1.8,0.807 1.8,1.8" /><path
       inkscape:connector-curvature="0"
       id="path400"
       style="fill:#000000;fill-opacity:1;fill-rule:nonzero;stroke:none;stroke-width:0.1"
       d="m 952.2,576 c 0,0.994 -0.806,1.8 -1.8,1.8 -0.993,0 -1.8,-0.806 -1.8,-1.8 0,-0.993 0.807,-1.8 1.8,-1.8 0.994,0 1.8,0.807 1.8,1.8" /><path
       inkscape:connector-curvature="0"
       id="path404"
       style="fill:#000000;fill-opacity:1;fill-rule:nonzero;stroke:none;stroke-width:0.1"
       d="m 966.6,489.6 c 0,0.994 -0.806,1.8 -1.8,1.8 -0.993,0 -1.8,-0.806 -1.8,-1.8 0,-0.993 0.807,-1.8 1.8,-1.8 0.994,0 1.8,0.807 1.8,1.8" /><path
       inkscape:connector-curvature="0"
       id="path406"
       style="fill:#ff2500;fill-opacity:1;fill-rule:nonzero;stroke:none;stroke-width:0.1"
       d="m 966.6,489.6 c 0,0.994 -0.806,1.8 -1.8,1.8 -0.993,0 -1.8,-0.806 -1.8,-1.8 0,-0.993 0.807,-1.8 1.8,-1.8 0.994,0 1.8,0.807 1.8,1.8" /><path
       inkscape:connector-curvature="0"
       id="path408"
       style="fill:#000000;fill-opacity:1;fill-rule:nonzero;stroke:none;stroke-width:0.1"
       d="m 930.6,532.8 c 0,0.994 -0.806,1.8 -1.8,1.8 -0.993,0 -1.8,-0.806 -1.8,-1.8 0,-0.993 0.807,-1.8 1.8,-1.8 0.994,0 1.8,0.807 1.8,1.8" /><path
       inkscape:connector-curvature="0"
       id="path410"
       style="fill:#cbcb00;fill-opacity:1;fill-rule:nonzero;stroke:none;stroke-width:0.1"
       d="m 930.6,532.8 c 0,0.994 -0.806,1.8 -1.8,1.8 -0.993,0 -1.8,-0.806 -1.8,-1.8 0,-0.993 0.807,-1.8 1.8,-1.8 0.994,0 1.8,0.807 1.8,1.8" /><path
       inkscape:connector-curvature="0"
       id="path412"
       style="fill:#000000;fill-opacity:1;fill-rule:nonzero;stroke:none;stroke-width:0.1"
       d="m 988.2,554.4 c 0,0.994 -0.806,1.8 -1.8,1.8 -0.993,0 -1.8,-0.806 -1.8,-1.8 0,-0.993 0.807,-1.8 1.8,-1.8 0.994,0 1.8,0.807 1.8,1.8" /><path
       inkscape:connector-curvature="0"
       id="path414"
       style="fill:#06fb00;fill-opacity:1;fill-rule:nonzero;stroke:none;stroke-width:0.1"
       d="m 988.2,554.4 c 0,0.994 -0.806,1.8 -1.8,1.8 -0.993,0 -1.8,-0.806 -1.8,-1.8 0,-0.993 0.807,-1.8 1.8,-1.8 0.994,0 1.8,0.807 1.8,1.8" /></g></svg>